<svg width="483" height="482" xmlns="http://www.w3.org/2000/svg" xmlns:xlink="http://www.w3.org/1999/xlink" overflow="hidden"><defs><filter id="fx0" x="-10%" y="-10%" width="120%" height="120%" filterUnits="userSpaceOnUse" primitiveUnits="userSpaceOnUse"><feComponentTransfer color-interpolation-filters="sRGB"><feFuncR type="discrete" tableValues="0 0"/><feFuncG type="discrete" tableValues="0 0"/><feFuncB type="discrete" tableValues="0 0"/><feFuncA type="linear" slope="0.631373" intercept="0"/></feComponentTransfer><feGaussianBlur stdDeviation="2 2"/></filter><clipPath id="clip1"><rect x="400" y="121" width="483" height="482"/></clipPath><clipPath id="clip2"><rect x="-2" y="-2" width="485" height="487"/></clipPath><clipPath id="clip3"><rect x="0" y="0" width="483" height="484"/></clipPath></defs><g clip-path="url(#clip1)" transform="translate(-400 -121)"><g clip-path="url(#clip2)" filter="url(#fx0)" transform="translate(400 120)"><g clip-path="url(#clip3)"><path d="M7 242C7 112.213 111.989 7 241.5 7 371.011 7 476 112.213 476 242 476 371.787 371.011 477 241.5 477 111.989 477 7 371.787 7 242Z" fill="#0A00A6" fill-rule="evenodd"/></g></g><path d="M407 360C407 230.213 511.989 125 641.5 125 771.011 125 876 230.213 876 360 876 489.787 771.011 595 641.5 595 511.989 595 407 489.787 407 360Z" fill="#0A00A6" fill-rule="evenodd"/><path d="M0.00757507 183.948C-0.91377 83.2819 79.9454 0.928846 180.612 0.00750071 281.278-0.913844 363.631 79.9454 364.552 180.612 365.467 280.549 285.74 362.586 185.817 364.526L182.28 182.28Z" fill="#0A00A6" fill-rule="evenodd" transform="matrix(-0.707107 0.707107 0.707107 0.707107 640 102.217)"/><path d="M0.00757507 183.948C-0.91377 83.2819 79.9454 0.928846 180.612 0.00750071 281.278-0.913844 363.631 79.9454 364.552 180.612 365.467 280.549 285.74 362.586 185.817 364.526" stroke="#FFFFFF" stroke-width="26.6667" stroke-miterlimit="8" fill="none" fill-rule="evenodd" transform="matrix(-0.707107 0.707107 0.707107 0.707107 640 102.217)"/></g></svg>